<?xml version="1.0" encoding="UTF-8"?>
<!-- Generator: visioncortex VTracer 0.6.4 -->
<svg version="1.1" xmlns="http://www.w3.org/2000/svg" width="328" height="150">
<path d="M0 0 C6.92 5.17 13.19 11.01 19.2 17.2 C20.93 18.93 22.71 20.53 24.56 22.12 C40.15 35.67 53.92 48.39 57 70 C57.1 71.87 57.15 73.73 57.16 75.6 C57.17 76.68 57.18 77.75 57.19 78.86 C57.2 80.58 57.2 80.58 57.2 82.34 C57.21 83.53 57.21 84.72 57.22 85.95 C57.23 88.47 57.24 90.99 57.24 93.51 C57.25 97.35 57.28 101.2 57.31 105.04 C57.32 107.49 57.32 109.95 57.33 112.4 C57.34 113.54 57.35 114.68 57.37 115.86 C57.34 124.39 55.93 131.49 50.62 138.41 C45.85 143.11 39.75 145.28 33.15 145.52 C31.08 145.5 29.01 145.45 26.94 145.38 C25.85 145.36 24.77 145.34 23.65 145.31 C14.75 145.12 5.87 144.68 -3 144 C-4.21 139.39 -4.21 139.39 -2.31 135.88 C0.84 131.95 3.22 130.23 7.94 128.69 C11.38 127.5 12.02 126.98 14.44 123.94 C17.21 120.76 17.73 120.59 21.62 119.94 C25.32 119.35 25.32 119.35 28.06 116.75 C29.11 113.67 29.23 111.23 29 108 C26.53 109.15 24.95 110.05 23 112 C20.38 111.62 20.38 111.62 18 111 C17.18 107.43 16.88 104.14 16.9 100.48 C16.91 98.95 16.91 98.95 16.91 97.38 C16.92 95.8 16.92 95.8 16.94 94.19 C16.94 93.11 16.95 92.04 16.95 90.93 C16.96 88.29 16.98 85.64 17 83 C14.92 82.45 13.16 82 11 82 C10.29 87.11 9.95 91.98 10.08 97.14 C10.1 98.21 10.13 99.28 10.16 100.38 C10.22 102.6 10.3 104.81 10.39 107.03 C10.57 116.07 10.57 116.07 7.79 119.62 C2.88 123.81 -2.73 126.51 -9.31 126 C-13.24 124.93 -15.25 124 -18 121 C-19.1 118.15 -19.12 116.56 -18.47 113.59 C-16.38 109.91 -13.26 108.71 -9.56 107 C-8.2 106.37 -6.85 105.72 -5.5 105.06 C-4.9 104.79 -4.3 104.51 -3.69 104.22 C-0.55 101.95 0.75 99 1.68 95.31 C2.12 92.21 2.55 89.11 2.94 86 C3.1 84.92 3.26 83.84 3.43 82.73 C4.39 76.58 4.39 76.58 2.11 71.05 C1.42 70.37 0.72 69.7 0 69 C-0.61 66.54 -0.61 66.54 -0.75 64.19 C-0.81 63.4 -0.86 62.61 -0.92 61.79 C-0.95 61.2 -0.97 60.61 -1 60 C-2.98 60.27 -2.98 60.27 -5 61 C-6.86 66.57 -6.3 72.09 -5 77.75 C-3.53 84.57 -1.95 93.45 -5.69 99.75 C-8.26 102.26 -9.42 103 -13 103 C-15.71 102.02 -16.7 101.59 -18 99 C-18.78 93.66 -16.91 90.67 -14.09 86.34 C-12.67 83.3 -12.62 81.34 -13 78 C-14.35 74.99 -14.35 74.99 -16.12 72.06 C-19.04 66.5 -19.04 66.5 -18.69 62.06 C-16.85 58.73 -14.86 56.5 -12 54 C-10.7 52.93 -10.7 52.93 -10.94 50.44 C-10.96 49.63 -10.98 48.83 -11 48 C-12.48 47.51 -12.48 47.51 -14 47 C-14.99 48.65 -15.98 50.3 -17 52 C-18.87 51.88 -18.87 51.88 -21 51 C-22.25 47.94 -22.25 47.94 -23 45 C-23.99 45 -24.98 45 -26 45 C-28.5 53.6 -27.21 61.45 -23.89 69.58 C-22.81 72.51 -22.6 74.91 -23 78 C-23.33 78.66 -23.66 79.32 -24 80 C-30.24 80.48 -30.24 80.48 -33.38 78.5 C-35.59 75.09 -36.11 72.05 -36 68 C-35.06 65.25 -35.06 65.25 -34 63 C-34 61.68 -34 60.36 -34 59 C-36.87 58.67 -36.87 58.67 -40 59 C-42.48 61.14 -43 62.99 -43.94 66.12 C-44.03 72.16 -42.76 77.01 -38.56 81.56 C-35.77 84.27 -32.86 86.81 -29.9 89.34 C-26.62 92.35 -25.28 94.02 -24.66 98.37 C-24.57 104.11 -25.06 107.5 -29 112 C-32 114 -32 114 -35.12 113.69 C-38 113 -38 113 -39 112 C-39.06 110.48 -39.06 108.97 -39.03 107.45 C-39.01 106.06 -39.01 106.06 -38.99 104.64 C-38.96 102.68 -38.92 100.73 -38.87 98.77 C-38.86 97.37 -38.86 97.37 -38.84 95.95 C-38.82 95.1 -38.81 94.24 -38.79 93.37 C-39.02 90.81 -39.71 89.2 -41 87 C-42.32 87 -43.64 87 -45 87 C-45 87.61 -45.01 88.23 -45.01 88.86 C-45.13 91.37 -45.32 93.58 -46 96 C-49 97.75 -49 97.75 -52 99 C-54.06 104.45 -51.54 108.82 -49.44 113.91 C-46.69 119.81 -43.36 122.82 -37.94 126.44 C-33.33 129.56 -31.04 131.8 -29 137 C-28.75 140.94 -28.75 140.94 -29 144 C-35.91 145.26 -42.81 145.26 -49.81 145.31 C-51.03 145.34 -52.25 145.37 -53.51 145.4 C-62.97 145.47 -70.63 144.2 -77.88 137.81 C-84.02 131.71 -85.46 123.99 -85.56 115.65 C-85.55 114.49 -85.54 113.34 -85.53 112.14 C-85.54 110.93 -85.54 109.71 -85.54 108.45 C-85.55 105.88 -85.54 103.31 -85.52 100.74 C-85.5 96.84 -85.52 92.95 -85.55 89.05 C-85.57 66.28 -82.37 49.77 -66 33 C-65.14 32.08 -65.14 32.08 -64.25 31.14 C-60.1 26.8 -55.51 23.09 -50.83 19.33 C-48.1 17.08 -45.48 14.76 -42.88 12.38 C-30.8 1.46 -16.5 -9.08 0 0 Z " fill="#FFFFFF" transform="translate(85,5)"/>
<path d="M0 0 C3.19 -0.09 6.37 -0.14 9.56 -0.19 C10.46 -0.21 11.35 -0.24 12.28 -0.26 C18.75 -0.33 23.94 0.23 28.94 4.75 C30.98 9.07 30.3 12.97 29 17.44 C28.67 18.28 28.34 19.13 28 20 C28.66 20.47 29.32 20.95 30 21.44 C32.55 24.71 32.59 26.76 32.37 30.82 C31.78 34.3 30.72 35.75 28 38 C20.16 42.62 9.76 41.48 1 41 C0 40 0 40 -0.11 36.21 C-0.11 34.53 -0.11 32.84 -0.1 31.15 C-0.1 30.27 -0.09 29.38 -0.09 28.47 C-0.09 25.62 -0.08 22.78 -0.06 19.94 C-0.06 18.01 -0.05 16.09 -0.05 14.17 C-0.04 9.45 -0.02 4.72 0 0 Z M11 10 C11 11.98 11 13.96 11 16 C14.47 15.5 14.47 15.5 18 15 C17.67 13.35 17.34 11.7 17 10 C15.02 10 13.04 10 11 10 Z M11 26 C11 27.65 11 29.3 11 31 C15.65 31.27 15.65 31.27 20 30 C20 28.68 20 27.36 20 26 C17.03 26 14.06 26 11 26 Z " fill="#FFFFFF" transform="translate(171,54)"/>
<path d="M0 0 C3.02 -0.08 6.04 -0.14 9.06 -0.19 C9.91 -0.21 10.76 -0.24 11.63 -0.26 C18.32 -0.34 23.23 0.52 28.38 5.12 C30.86 9.51 31.76 14.04 30.49 19 C29.12 22.37 27.21 25.14 25 28 C25.52 28.69 26.03 29.37 26.57 30.08 C27.23 30.98 27.88 31.88 28.56 32.81 C29.22 33.71 29.89 34.6 30.57 35.52 C31.04 36.34 31.51 37.16 32 38 C31.67 38.99 31.34 39.98 31 41 C21.95 41.62 21.95 41.62 18.62 39.44 C16.58 36.38 14.81 33.2 13 30 C12.34 29.67 11.68 29.34 11 29 C11.01 29.78 11.02 30.56 11.04 31.37 C11.04 32.38 11.05 33.39 11.06 34.44 C11.07 35.45 11.09 36.46 11.1 37.5 C11 40 11 40 10 41 C8.5 41.1 7 41.13 5.5 41.12 C4.69 41.13 3.87 41.13 3.03 41.13 C1 41 1 41 0 40 C-0.09 37.04 -0.12 34.11 -0.1 31.15 C-0.1 30.27 -0.09 29.38 -0.09 28.47 C-0.09 25.62 -0.08 22.78 -0.06 19.94 C-0.06 18.01 -0.05 16.09 -0.05 14.17 C-0.04 9.45 -0.02 4.72 0 0 Z M11 10 C11 12.97 11 15.94 11 19 C13.92 19.17 13.92 19.17 17 19 C17.66 18.34 18.32 17.68 19 17 C18.81 13.17 18.81 13.17 17 10 C15 9.96 13 9.96 11 10 Z " fill="#FFFFFF" transform="translate(171,107)"/>
<path d="M0 0 C0.99 0.66 1.98 1.32 3 2 C3 2.66 3 3.32 3 4 C3.85 3.34 4.69 2.68 5.56 2 C9.54 -0.31 11.48 -0.66 16 0 C18.66 1.27 18.66 1.27 21 4 C21.81 8.05 21.84 12.07 21.88 16.19 C21.93 17.86 21.93 17.86 21.98 19.58 C22.12 25.38 22.12 25.38 22 28 C21 29 21 29 18.97 29.13 C18.15 29.13 17.34 29.13 16.5 29.12 C15.69 29.13 14.87 29.13 14.03 29.13 C12 29 12 29 11 28 C10.91 26.66 10.89 25.31 10.9 23.96 C10.91 23.16 10.91 22.35 10.91 21.51 C10.92 20.24 10.92 20.24 10.94 18.94 C10.94 18.08 10.95 17.23 10.95 16.35 C10.96 14.23 10.98 12.12 11 10 C8.5 10.78 8.5 10.78 6 12 C4.56 16.32 4.56 20.64 4.28 25.16 C4 28 4 28 3 29 C1.19 29.13 1.19 29.13 -1 29.12 C-1.72 29.13 -2.44 29.13 -3.19 29.13 C-5 29 -5 29 -6 28 C-6.24 25.14 -6.42 22.3 -6.56 19.44 C-6.61 18.63 -6.65 17.82 -6.69 16.99 C-6.8 15 -6.9 13 -7 11 C-8.32 11 -9.64 11 -11 11 C-12.58 14.17 -12.66 17.65 -13.06 21.12 C-13.15 21.88 -13.24 22.63 -13.34 23.41 C-13.56 25.27 -13.78 27.14 -14 29 C-15.48 29.03 -16.96 29.05 -18.44 29.06 C-19.67 29.08 -19.67 29.08 -20.93 29.1 C-23 29 -23 29 -24 28 C-24.1 26.09 -24.13 24.17 -24.13 22.25 C-24.13 21.08 -24.14 19.92 -24.14 18.72 C-24.13 17.49 -24.13 16.26 -24.12 15 C-24.13 13.77 -24.13 12.55 -24.14 11.28 C-24.14 10.12 -24.13 8.95 -24.13 7.75 C-24.13 6.67 -24.13 5.59 -24.13 4.48 C-24 2 -24 2 -23 1 C-21.48 0.93 -19.96 0.92 -18.44 0.94 C-17.61 0.95 -16.78 0.96 -15.93 0.96 C-15.3 0.98 -14.66 0.99 -14 1 C-14 1.99 -14 2.98 -14 4 C-13.18 3.34 -12.35 2.68 -11.5 2 C-7.59 -0.62 -4.63 -0.45 0 0 Z " fill="#FFFFFF" transform="translate(306,66)"/>
<path d="M0 0 C3.63 0 7.26 0 11 0 C11.33 4.95 11.66 9.9 12 15 C12.99 14.34 13.98 13.68 15 13 C20.02 12.53 22.92 13 27 16 C29.5 18.5 28.49 25.06 28.62 28.44 C28.7 30.05 28.7 30.05 28.78 31.7 C28.83 32.72 28.87 33.75 28.91 34.81 C28.95 35.76 29 36.7 29.04 37.68 C29 40 29 40 28 42 C26.52 42.03 25.04 42.05 23.56 42.06 C22.33 42.08 22.33 42.08 21.07 42.1 C19 42 19 42 18 41 C17.91 39.66 17.89 38.31 17.9 36.96 C17.91 36.16 17.91 35.35 17.91 34.51 C17.92 33.66 17.93 32.81 17.94 31.94 C17.94 31.08 17.95 30.23 17.95 29.35 C17.96 27.23 17.98 25.12 18 23 C16.35 23.33 14.7 23.66 13 24 C11.48 28.55 11.55 33.18 11.28 37.95 C11 41 11 41 10 42 C8.5 42.1 7 42.13 5.5 42.12 C4.69 42.13 3.87 42.13 3.03 42.13 C1 42 1 42 0 41 C-0.09 37.97 -0.12 34.96 -0.1 31.93 C-0.1 31.02 -0.09 30.12 -0.09 29.18 C-0.09 26.27 -0.08 23.35 -0.06 20.44 C-0.06 18.47 -0.05 16.5 -0.05 14.53 C-0.04 9.68 -0.02 4.84 0 0 Z " fill="#FFFFFF" transform="translate(200,0)"/>
<path d="M0 0 C1.13 0.01 2.25 0.01 3.41 0.02 C4.63 0.02 5.84 0.02 7.09 0.03 C8.37 0.03 9.65 0.04 10.97 0.05 C12.25 0.06 13.54 0.06 14.86 0.06 C18.04 0.08 21.23 0.09 24.41 0.11 C24.41 3.41 24.41 6.71 24.41 10.11 C21.77 10.11 19.13 10.11 16.41 10.11 C16.42 11.47 16.42 11.47 16.42 12.85 C16.44 16.19 16.45 19.53 16.46 22.88 C16.47 24.32 16.47 25.77 16.48 27.22 C16.5 29.3 16.5 31.38 16.51 33.45 C16.51 35.33 16.51 35.33 16.52 37.25 C16.41 40.11 16.41 40.11 15.41 41.11 C13.74 41.21 12.08 41.24 10.41 41.24 C9.05 41.24 9.05 41.24 7.66 41.25 C5.41 41.11 5.41 41.11 4.41 40.11 C4.32 37.89 4.3 35.67 4.31 33.45 C4.31 32.79 4.31 32.12 4.31 31.44 C4.32 29.31 4.33 27.18 4.35 25.05 C4.35 23.61 4.36 22.17 4.36 20.73 C4.37 17.19 4.39 13.65 4.41 10.11 C2.71 10.14 2.71 10.14 0.97 10.18 C-2.59 10.11 -2.59 10.11 -3.59 9.11 C-3.72 7.3 -3.72 7.3 -3.72 5.11 C-3.72 4.39 -3.72 3.67 -3.72 2.93 C-3.51 -0 -2.95 0.13 0 0 Z " fill="#FFFFFF" transform="translate(172.592041015625,0.886474609375)"/>
<path d="M0 0 C3.5 3.16 5.29 5.81 5.91 10.55 C6.16 16.83 4.7 20.84 0.69 25.75 C-4.19 28.34 -8.98 28.23 -14.38 27.38 C-18.36 25.45 -20.71 22.43 -22.38 18.38 C-23.07 13.52 -23.01 8.86 -20.75 4.44 C-15.42 -2.43 -7.68 -3.7 0 0 Z M-9.38 7.38 C-11.33 9.52 -11.33 9.52 -12.38 12.38 C-11.68 15.16 -11.68 15.16 -10.38 17.38 C-8.73 17.05 -7.07 16.72 -5.38 16.38 C-5.11 11.72 -5.11 11.72 -6.38 7.38 C-7.37 7.38 -8.36 7.38 -9.38 7.38 Z " fill="#FFFFFF" transform="translate(273.375,67.625)"/>
<path d="M0 0 C3.5 3.16 5.29 5.81 5.91 10.55 C6.16 16.83 4.7 20.84 0.69 25.75 C-4.21 28.35 -8.97 28.34 -14.38 27.38 C-18.46 25.16 -20.9 22.79 -22.38 18.38 C-23.1 11.55 -22.62 6.85 -18.38 1.38 C-12.65 -2.76 -6.25 -3.01 0 0 Z M-9.38 7.38 C-10.37 7.87 -10.37 7.87 -11.38 8.38 C-12.32 11.3 -12.61 12.8 -11.44 15.69 C-11.09 16.24 -10.74 16.8 -10.38 17.38 C-8.72 17.05 -7.07 16.72 -5.38 16.38 C-5.38 14.06 -5.38 11.75 -5.38 9.38 C-7.26 8.27 -7.26 8.27 -9.38 7.38 Z " fill="#FFFFFF" transform="translate(243.375,67.625)"/>
<path d="M0 0 C3.51 2.05 5.7 4.11 7 8 C7.12 10.75 7.12 10.75 7 13 C-2.41 17.22 -2.41 17.22 -7 19 C-6.67 19.33 -6.34 19.66 -6 20 C-4.14 19.91 -2.29 19.75 -0.44 19.56 C0.57 19.46 1.59 19.36 2.63 19.25 C3.41 19.17 4.19 19.09 5 19 C7.02 22.73 7.02 22.73 6.88 25.12 C5.68 27.68 4.61 27.98 2 29 C-0.84 29.3 -0.84 29.3 -3.94 29.31 C-4.96 29.33 -5.98 29.35 -7.03 29.36 C-11.69 28.79 -14.22 26.87 -17.31 23.44 C-20.09 17.77 -19.85 12.56 -17.88 6.62 C-13.21 0.09 -7.66 -1.28 0 0 Z M-7 9 C-7.33 9.99 -7.66 10.98 -8 12 C-6.35 11.67 -4.7 11.34 -3 11 C-3 10.34 -3 9.68 -3 9 C-4.32 9 -5.64 9 -7 9 Z " fill="#FFFFFF" transform="translate(253,119)"/>
<path d="M0 0 C2.92 2.66 3.94 5.2 5.12 8.94 C5.11 10.99 5.11 10.99 4.12 12.94 C1.18 14.42 1.18 14.42 -2.44 15.69 C-3.64 16.12 -4.83 16.54 -6.07 16.98 C-6.99 17.3 -7.92 17.61 -8.88 17.94 C-7.78 19.26 -7.78 19.26 -5.06 19.06 C-2.45 18.96 -0.36 18.7 2.12 17.94 C3.75 20.19 3.75 20.19 5.12 22.94 C4.5 25.19 4.5 25.19 3.12 26.94 C-2.36 28.77 -9.49 29.14 -14.99 27.18 C-18 25.27 -19.59 23.2 -20.88 19.94 C-21.54 14.37 -21.61 9.48 -19.19 4.38 C-13.62 -1.5 -7.64 -2.82 0 0 Z M-9.88 7.94 C-10.21 8.93 -10.53 9.92 -10.88 10.94 C-8.9 10.61 -6.91 10.28 -4.88 9.94 C-5.21 9.28 -5.53 8.62 -5.88 7.94 C-7.19 7.94 -8.51 7.94 -9.88 7.94 Z " fill="#FFFFFF" transform="translate(252.875,14.0625)"/>
<path d="M0 0 C2.92 2.66 3.94 5.2 5.12 8.94 C5.07 11.02 5.07 11.02 4.12 12.94 C1.4 14.2 1.4 14.2 -1.94 15.19 C-3.04 15.52 -4.15 15.86 -5.29 16.2 C-6.14 16.45 -6.99 16.69 -7.88 16.94 C-7.88 17.6 -7.88 18.26 -7.88 18.94 C-4.35 19.02 -1.26 18.98 2.12 17.94 C3.69 20.25 3.69 20.25 5.12 22.94 C4.12 25.94 4.12 25.94 2.46 27.1 C-2.78 28.98 -9.73 29.06 -14.99 27.18 C-18.01 25.28 -19.6 23.2 -20.88 19.94 C-21.18 17.1 -21.18 17.1 -21.19 14 C-21.2 12.98 -21.22 11.96 -21.24 10.91 C-20.68 6.32 -18.41 2.88 -14.88 -0.06 C-9.9 -1.72 -4.94 -1.83 0 0 Z M-9.88 7.94 C-10.21 8.93 -10.53 9.92 -10.88 10.94 C-9.22 10.61 -7.57 10.28 -5.88 9.94 C-5.88 9.28 -5.88 8.62 -5.88 7.94 C-7.19 7.94 -8.51 7.94 -9.88 7.94 Z " fill="#FFFFFF" transform="translate(226.875,120.0625)"/>
<path d="M0 0 C1.6 3.2 0.03 5.72 -1 9 C-1.99 9 -2.98 9 -4 9 C-4.33 10.32 -4.66 11.64 -5 13 C-3.68 13.33 -2.36 13.66 -1 14 C-1 16.64 -1 19.28 -1 22 C-2.32 22 -3.64 22 -5 22 C-4.99 22.57 -4.99 23.14 -4.98 23.73 C-4.96 26.3 -4.95 28.87 -4.94 31.44 C-4.93 32.34 -4.92 33.23 -4.91 34.16 C-4.91 35.01 -4.91 35.87 -4.9 36.75 C-4.9 37.54 -4.89 38.33 -4.89 39.14 C-5 41 -5 41 -6 42 C-7.81 42.13 -7.81 42.13 -10 42.12 C-10.72 42.13 -11.44 42.13 -12.19 42.13 C-14 42 -14 42 -15 41 C-15.09 39.58 -15.11 38.16 -15.1 36.75 C-15.09 35.89 -15.09 35.04 -15.09 34.16 C-15.08 33.26 -15.07 32.36 -15.06 31.44 C-15.06 30.54 -15.05 29.63 -15.05 28.71 C-15.04 26.47 -15.02 24.24 -15 22 C-16.32 22 -17.64 22 -19 22 C-19 19.36 -19 16.72 -19 14 C-17.68 13.67 -16.36 13.34 -15 13 C-14.99 12.4 -14.97 11.79 -14.96 11.17 C-14.72 7.13 -14.54 4.69 -12 1.44 C-7.92 -0.52 -4.44 -0.35 0 0 Z " fill="#FFFFFF" transform="translate(281,106)"/>
<path d="M0 0 C1.65 -0.03 3.29 -0.05 4.94 -0.06 C5.85 -0.07 6.77 -0.09 7.71 -0.1 C10 0 10 0 11 1 C11.1 3.86 11.14 6.7 11.13 9.56 C11.13 10.42 11.13 11.28 11.14 12.16 C11.14 13.98 11.13 15.81 11.13 17.63 C11.13 20.42 11.13 23.22 11.14 26.01 C11.14 27.78 11.13 29.54 11.13 31.31 C11.13 32.15 11.14 32.99 11.14 33.85 C11.11 39.77 11.11 39.77 10 42 C8.52 42.03 7.04 42.05 5.56 42.06 C4.74 42.07 3.92 42.09 3.07 42.1 C1 42 1 42 0 41 C-0.09 37.97 -0.12 34.96 -0.1 31.93 C-0.1 31.02 -0.09 30.12 -0.09 29.18 C-0.09 26.27 -0.08 23.35 -0.06 20.44 C-0.06 18.47 -0.05 16.5 -0.05 14.53 C-0.04 9.68 -0.02 4.84 0 0 Z " fill="#FFFFFF" transform="translate(207,53)"/>
</svg>
