<?xml version="1.0" encoding="UTF-8"?>
<svg version="1.1" xmlns="http://www.w3.org/2000/svg" width="741" height="247">
<path d="M0 0 C3.79217684 2.97341139 5.09120516 6.14770457 6.6875 10.625 C6.92807129 11.29144531 7.16864258 11.95789063 7.41650391 12.64453125 C8.2928756 15.09122678 9.14734114 17.54493808 10 20 C10.37946777 21.08635742 10.75893555 22.17271484 11.14990234 23.29199219 C13.78889545 30.85370241 16.40342663 38.42362559 19 46 C19.69107361 43.8344237 20.37795366 41.66764312 21.0625 39.5 C21.39314453 38.46008911 21.39314453 38.46008911 21.73046875 37.39916992 C23.15095704 32.87868059 24.46875028 28.341333 25.71484375 23.76953125 C26.01060303 22.7021875 26.3063623 21.63484375 26.61108398 20.53515625 C27.19584618 18.41517246 27.76736745 16.29148412 28.32446289 14.1640625 C29.86782199 8.61938526 31.04987783 4.41915655 36 1 C38.90234375 0.3359375 38.90234375 0.3359375 41.9375 0.375 C42.93652344 0.36210937 43.93554688 0.34921875 44.96484375 0.3359375 C48.90623325 1.19827497 51.43169938 2.9707728 54 6 C55.43359375 9.109375 55.43359375 9.109375 56.4375 12.75 C56.62723389 13.41451172 56.81696777 14.07902344 57.01245117 14.76367188 C57.44261121 16.28184394 57.86257405 17.80292801 58.27441406 19.32617188 C59.11593013 22.42720954 59.99063836 25.51806072 60.8671875 28.609375 C62.59958106 34.73370947 64.30691905 40.86469149 66 47 C66.40839111 45.78417236 66.81678223 44.56834473 67.23754883 43.31567383 C68.75799167 38.79429367 70.28616231 34.27555707 71.81665039 29.75756836 C72.47728301 27.80385145 73.13583334 25.84942913 73.79223633 23.89428711 C74.73749614 21.07997458 75.69027862 18.26830536 76.64453125 15.45703125 C76.9352803 14.58601273 77.22602936 13.7149942 77.52558899 12.81758118 C81.26299599 1.868502 81.26299599 1.868502 85 0 C91.49713598 -0.82225165 96.6295039 0.2105378 102 4 C104.125 6.0625 104.125 6.0625 105 9 C104.25437263 17.69076292 101.2152877 25.8952879 98.3515625 34.06640625 C97.89254697 35.39414531 97.43417563 36.72210723 96.97640991 38.05027771 C96.02135752 40.81607465 95.06117304 43.58001072 94.09667969 46.3425293 C92.87028587 49.85534936 91.65299161 53.37123191 90.43908119 56.88838291 C89.26727669 60.28216843 88.09079751 63.67432785 86.9140625 67.06640625 C86.69522022 67.69854097 86.47637794 68.3306757 86.25090408 68.98196602 C78.19334142 92.22216622 78.19334142 92.22216622 73 95 C68.05771199 96.25803695 64.5894001 96.29470005 60 94 C54.03419972 88.5216017 52.56245898 81.25983542 50.375 73.6875 C49.99095932 72.39347105 49.60555211 71.09984683 49.21875 69.80664062 C48.47862886 67.3272348 47.7424527 64.84664703 47.01074219 62.36474609 C45.76263202 58.20980542 44.40533472 54.10411446 43 50 C40.71082053 53.43376921 39.6786702 56.8673775 38.50390625 60.7734375 C38.02285887 62.3359598 37.54173674 63.89845908 37.06054688 65.4609375 C36.31032628 67.91798971 35.56229156 70.37568674 34.81616211 72.83398438 C34.09267609 75.21139142 33.36114713 77.58621492 32.62890625 79.9609375 C32.41005264 80.69130219 32.19119904 81.42166687 31.9657135 82.17416382 C30.26863141 87.66297926 28.86186525 91.7587565 24 95 C19.01079288 96.1296318 15.66309241 96.17610979 11 94 C7.09843852 90.82005901 5.55421651 87.1184034 3.8671875 82.5078125 C3.57528534 81.73341827 3.28338318 80.95902405 2.9826355 80.16116333 C-1.04622333 69.36430068 -4.82546399 58.47388856 -8.59082031 47.58300781 C-9.88569949 43.84410573 -11.19270337 40.10957574 -12.5 36.375 C-13.33147083 33.97681951 -14.16222625 31.57839084 -14.9921875 29.1796875 C-15.38066864 28.0743869 -15.76914978 26.9690863 -16.16940308 25.83029175 C-20.93572552 11.94085163 -20.93572552 11.94085163 -19.125 6.25 C-14.03047442 0.85579644 -7.21372234 -0.97813184 0 0 Z " fill="#7FA6D7" transform="translate(352,142)"/>
<path d="M0 0 C6.40787293 2.58439074 10.17282423 10.23054544 13.97265625 15.72265625 C18.26573946 21.87188834 22.89083647 27.77525591 27.46655273 33.71508789 C28.12469971 34.57223389 28.78284668 35.42937988 29.4609375 36.3125 C30.04665527 37.07175781 30.63237305 37.83101562 31.23583984 38.61328125 C33.25644207 41.34693851 35.13346621 44.15946656 37 47 C37.01981934 45.8447583 37.03963867 44.6895166 37.06005859 43.49926758 C37.13626941 39.20331439 37.22496289 34.90769308 37.31738281 30.61206055 C37.35560866 28.75470544 37.39047263 26.89727792 37.421875 25.03979492 C37.46766461 22.36611088 37.52563579 19.69292258 37.5859375 17.01953125 C37.59748871 16.19226028 37.60903992 15.36498932 37.62094116 14.51264954 C37.75124911 9.3944797 38.00344624 5.10721725 41.69140625 1.21484375 C44.85849772 -0.45176445 47.37294343 -0.43369578 50.9375 -0.4375 C52.14277344 -0.45683594 53.34804688 -0.47617188 54.58984375 -0.49609375 C58.59556309 0.08663976 60.22466024 1.09177104 63 4 C64.38453503 7.70616658 64.14777033 11.61651075 64.14526367 15.51904297 C64.14862228 16.27076782 64.1519809 17.02249268 64.15544128 17.79699707 C64.16492966 20.27874409 64.16689335 22.76042348 64.16796875 25.2421875 C64.17118284 26.97087634 64.17454703 28.69956491 64.17805481 30.42825317 C64.18404082 34.05129629 64.18589526 37.67431557 64.18530273 41.29736328 C64.18520115 45.93318838 64.19885171 50.56886019 64.21607494 55.20464897 C64.22720953 58.77520445 64.22922149 62.34572304 64.22869301 65.9162941 C64.22987098 67.62506768 64.23428252 69.33384228 64.24202538 71.04259872 C64.25185456 73.43589677 64.24893573 75.82886427 64.24291992 78.22216797 C64.24853943 78.92366974 64.25415894 79.62517151 64.25994873 80.34793091 C64.23291092 84.59439292 63.7440183 88.11175087 62 92 C57.24411452 94.85353129 52.51786072 96.00503892 47 95 C40.34843561 92.96174284 37.47067491 89.52296957 33.4375 84 C32.84396729 83.21270508 32.25043457 82.42541016 31.63891602 81.61425781 C29.74208175 79.0884693 27.86903347 76.54641418 26 74 C24.71893175 72.26549075 23.43768252 70.53111515 22.15625 68.796875 C20.33291177 66.32646975 18.51313055 63.853956 16.70678711 61.37109375 C16.1628833 60.62472656 15.61897949 59.87835938 15.05859375 59.109375 C14.58736084 58.45936523 14.11612793 57.80935547 13.63061523 57.13964844 C11.50544401 54.35105725 9.25771554 51.68242485 7 49 C6.98018066 50.05912598 6.96036133 51.11825195 6.93994141 52.20947266 C6.86359306 56.156971 6.77492175 60.10411473 6.68261719 64.05126953 C6.64444781 65.75627619 6.60957434 67.46136006 6.578125 69.16650391 C6.53221164 71.62430326 6.47426231 74.08157652 6.4140625 76.5390625 C6.39673569 77.67379501 6.39673569 77.67379501 6.37905884 78.83145142 C6.23826358 83.9354045 5.74472515 88.59061764 2.6875 92.8125 C-1.28898354 95.6107662 -6.32266381 95.32257491 -11 95 C-14.8125 93.875 -14.8125 93.875 -18 92 C-20.0440097 87.45243961 -20.28717639 83.14586726 -20.25878906 78.23803711 C-20.2622937 77.48441391 -20.26579834 76.73079071 -20.26940918 75.95433044 C-20.27816746 73.47857281 -20.27239895 71.00310398 -20.265625 68.52734375 C-20.26697321 66.79911749 -20.26891504 65.07089159 -20.27142334 63.34266663 C-20.27436648 59.7273496 -20.27010252 56.11213165 -20.26074219 52.49682617 C-20.24933957 47.86766915 -20.25591735 43.23874386 -20.26788712 38.6095953 C-20.2751203 35.04336303 -20.27281123 31.47718555 -20.26763153 27.91095161 C-20.26629952 26.20414769 -20.26792703 24.49733876 -20.27259064 22.7905407 C-20.27768081 20.40441616 -20.26991119 18.01866515 -20.25878906 15.63256836 C-20.26283752 14.9306134 -20.26688599 14.22865845 -20.27105713 13.50543213 C-20.22920921 8.64879423 -19.73228701 4.81193239 -16.30078125 1.22265625 C-11.31283271 -1.42798533 -5.44796296 -0.71930625 0 0 Z " fill="#80A6D8" transform="translate(573,143)"/>
<path d="M0 0 C3.16133484 2.7267871 3.90701374 3.45138109 4.625 7.6875 C4.37505994 13.01622198 1.37377717 17.04340488 -2 21 C-5.726417 23.484278 -8.6795735 23.65626732 -13 23 C-14.87890625 22.171875 -14.87890625 22.171875 -16.75 21.125 C-23.45752866 17.45558726 -30.93060376 16.08928654 -38.375 18.0625 C-44.66640294 20.35487314 -49.01454312 23.87195693 -52 30 C-53.90415566 36.2622584 -54.13235249 43.39418383 -51.3125 49.375 C-48.05064509 55.01120866 -43.23388792 59.92203736 -37 62 C-35.51876453 62.0806622 -34.03417796 62.10761193 -32.55078125 62.09765625 C-31.70322266 62.09443359 -30.85566406 62.09121094 -29.98242188 62.08789062 C-28.66081055 62.07532227 -28.66081055 62.07532227 -27.3125 62.0625 C-26.41982422 62.05798828 -25.52714844 62.05347656 -24.60742188 62.04882812 C-22.40491927 62.03705004 -20.20245115 62.01911481 -18 62 C-18 58.37 -18 54.74 -18 51 C-18.96421875 51.02320313 -19.9284375 51.04640625 -20.921875 51.0703125 C-22.18515625 51.08835938 -23.4484375 51.10640625 -24.75 51.125 C-26.00296875 51.14820313 -27.2559375 51.17140625 -28.546875 51.1953125 C-31.74676741 51.01432311 -33.40421361 50.79708289 -36 49 C-38.38261345 44.94955713 -38.60060187 40.58967397 -38 36 C-35.75 30.375 -35.75 30.375 -33 29 C-30.57767707 28.87714338 -28.18517944 28.81167669 -25.76171875 28.796875 C-24.68504692 28.78832489 -24.68504692 28.78832489 -23.58662415 28.77960205 C-22.06598383 28.77015048 -20.54532301 28.76361744 -19.0246582 28.75976562 C-16.70682611 28.75008075 -14.38988875 28.7190692 -12.07226562 28.6875 C-10.59375526 28.68096763 -9.11523855 28.67571808 -7.63671875 28.671875 C-6.94696457 28.6595282 -6.25721039 28.6471814 -5.54655457 28.63446045 C-1.18184737 28.65449391 1.54005342 29.31448048 5 32 C7.52572672 35.78859008 7.37664829 38.92446053 7.44140625 43.32421875 C7.46206398 44.55456596 7.46206398 44.55456596 7.48313904 45.80976868 C7.50641125 47.54718286 7.5236766 49.28468631 7.53540039 51.0222168 C7.56223755 53.66168767 7.63711125 56.29709187 7.71289062 58.93554688 C7.9315156 73.0957899 7.9315156 73.0957899 3.640625 78.0625 C1.78613281 79.703125 1.78613281 79.703125 0 81 C-0.928125 81.763125 -1.85625 82.52625 -2.8125 83.3125 C-15.4775703 90.01753722 -32.12363251 91.25008293 -45.875 87.4375 C-59.17438835 82.75230138 -69.88723317 72.62668399 -76 60 C-80.83055593 47.37639877 -81.7095893 33.72038146 -76.84765625 20.98046875 C-70.93437173 8.2202232 -61.86712401 -0.70939253 -48.97265625 -6.31640625 C-32.46688176 -12.17197767 -14.50443088 -9.75709248 0 0 Z " fill="#7FA6D7" transform="translate(724,150)"/>
<path d="M0 0 C1.30710938 -0.03996094 2.61421875 -0.07992187 3.9609375 -0.12109375 C8.57947349 0.58301142 9.76120775 1.80482494 12.625 5.4375 C13.19262695 8.85083008 13.19262695 8.85083008 13.11328125 12.70703125 C13.10620651 13.38803391 13.09913177 14.06903656 13.09184265 14.77067566 C13.06400069 16.93159995 13.00129527 19.08986822 12.9375 21.25 C12.91240332 22.72066552 12.88959253 24.19137193 12.86914062 25.66210938 C12.81846908 29.25573565 12.72063711 32.84367011 12.625 36.4375 C22.525 36.4375 32.425 36.4375 42.625 36.4375 C42.50658418 27.11850851 42.50658418 27.11850851 42.35473633 17.80004883 C42.34724365 16.63497803 42.33975098 15.46990723 42.33203125 14.26953125 C42.3163208 13.08077393 42.30061035 11.8920166 42.28442383 10.66723633 C42.66125468 7.09369131 43.46580559 5.28073932 45.625 2.4375 C49.25704338 0.01613774 51.17643835 0.10820361 55.5 0.0625 C56.71429688 0.03414062 57.92859375 0.00578125 59.1796875 -0.0234375 C63.24966483 0.52107194 64.85205179 1.4394416 67.625 4.4375 C68.79934848 8.54045998 68.77307252 12.65166974 68.77026367 16.88647461 C68.77362228 17.61883835 68.7769809 18.35120209 68.78044128 19.10575867 C68.78990931 21.5171378 68.79189219 23.92844721 68.79296875 26.33984375 C68.7961838 28.02226286 68.79954806 29.70468169 68.80305481 31.38710022 C68.8090354 34.91001026 68.81089577 38.43289579 68.81030273 41.95581055 C68.81020108 46.46269328 68.82386155 50.96941858 68.84107494 55.476264 C68.85220973 58.94988218 68.8542215 62.42346244 68.85369301 65.89709663 C68.85487057 67.55842189 68.85927978 69.21974821 68.86702538 70.88105583 C68.87685684 73.20719221 68.87393508 75.53298864 68.86791992 77.85913086 C68.87353943 78.54036011 68.87915894 79.22158936 68.88494873 79.92346191 C68.85264247 84.85662396 68.38924196 89.46969166 65 93.25 C59.56318044 95.96840978 53.42097586 95.88649397 47.625 94.4375 C44.75557887 92.17216753 43.78592388 90.92027163 42.625 87.4375 C42.54141042 85.22660055 42.51768236 83.01323922 42.52734375 80.80078125 C42.52984131 79.63071533 42.53233887 78.46064941 42.53491211 77.25512695 C42.54401611 75.76843506 42.55312012 74.28174316 42.5625 72.75 C42.583125 68.026875 42.60375 63.30375 42.625 58.4375 C32.725 58.4375 22.825 58.4375 12.625 58.4375 C12.68300781 60.61730469 12.74101562 62.79710937 12.80078125 65.04296875 C12.83982373 67.16443243 12.87015527 69.28585543 12.8996582 71.4074707 C12.92473644 72.87705525 12.95880856 74.34651587 13.00219727 75.81567383 C13.06315499 77.93341681 13.09127316 80.04950576 13.11328125 82.16796875 C13.13946533 83.44051514 13.16564941 84.71306152 13.19262695 86.02416992 C12.47783364 90.32246037 10.97147972 91.74764777 7.625 94.4375 C2.00629742 96.44490003 -3.93165147 95.50221841 -9.375 93.4375 C-12.70610866 89.36190749 -12.79935289 85.46093296 -12.74731445 80.40600586 C-12.75096512 79.61190811 -12.75461578 78.81781036 -12.75837708 77.99964905 C-12.76646076 75.38366079 -12.75289203 72.76829615 -12.73828125 70.15234375 C-12.73776243 68.33061219 -12.73828097 66.50888006 -12.73979187 64.68714905 C-12.73970225 60.87329731 -12.72929224 57.0596574 -12.71118164 53.24584961 C-12.68847876 48.35760343 -12.68795438 43.46966621 -12.69469929 38.5813818 C-12.69804054 34.82130691 -12.69140648 31.06130245 -12.68157005 27.30124092 C-12.67772169 25.49871756 -12.67656833 23.69618636 -12.6781559 21.89365959 C-12.67852676 19.37548765 -12.66590099 16.85771201 -12.6496582 14.33959961 C-12.65213562 13.59507538 -12.65461304 12.85055115 -12.65716553 12.08346558 C-12.61927773 8.40296362 -12.56152069 5.4848996 -10.375 2.4375 C-6.64250107 -0.05083262 -4.45553598 0.07440482 0 0 Z " fill="#7FA6D8" transform="translate(180.375,142.5625)"/>
<path d="M0 0 C2.17857161 3.12577666 2.56365086 4.85851006 2.5793457 8.62890625 C2.58638016 9.57749512 2.59341461 10.52608398 2.60066223 11.50341797 C2.60482651 12.53354004 2.60899078 13.56366211 2.61328125 14.625 C2.6364968 16.80599905 2.66061482 18.98698865 2.68554688 21.16796875 C2.72053249 24.60634523 2.74992886 28.04437811 2.76342773 31.48291016 C2.779007 34.80153301 2.81930025 38.1191472 2.86328125 41.4375 C2.86137283 42.45142822 2.85946442 43.46535645 2.85749817 44.51000977 C2.99120165 52.40533299 4.5827928 59.3156968 9.4375 65.6875 C14.34843235 67.93834399 19.1400818 67.74534224 24.4375 67.0625 C29.78356239 64.8667958 31.4353346 61.74983669 33.5993042 56.68273926 C35.08265299 52.04572159 35.00070538 47.47199646 34.9765625 42.640625 C34.98835541 41.57761169 35.00014832 40.51459839 35.01229858 39.41937256 C35.04736832 36.05026338 35.05671169 32.68177634 35.0625 29.3125 C35.07886572 25.92912798 35.10091903 22.5460305 35.13412476 19.16278076 C35.15369242 17.06491175 35.16309641 14.96691678 35.16104126 12.86895752 C35.17147964 11.44157257 35.17147964 11.44157257 35.18212891 9.98535156 C35.18338776 9.15312073 35.18464661 8.32088989 35.1859436 7.46343994 C35.48003406 4.65654042 36.16474394 2.58002999 37.4375 0.0625 C41.96775761 -2.95767174 47.1566483 -3.37575848 52.54296875 -2.65625 C55.8791973 -1.80263075 58.54697134 -0.87832236 60.4375 2.0625 C61.59373156 7.24915409 61.59872473 12.34849226 61.60546875 17.6328125 C61.61046135 19.00903275 61.61046135 19.00903275 61.61555481 20.41305542 C61.62060375 22.35121156 61.62296376 24.28937635 61.62280273 26.22753906 C61.6249774 29.15705148 61.64312223 32.08617968 61.66210938 35.015625 C61.72148065 53.70134065 60.2104318 70.02888902 46.60546875 84.16015625 C36.92012533 92.65882696 26.9629569 94.72615432 14.41796875 94.375 C3.40496317 93.5103872 -4.67437485 88.29199661 -12.1875 80.5 C-23.91596461 66.40973932 -23.89935878 49.52328573 -23.82324219 32.17016602 C-23.81245912 29.23888774 -23.82321947 26.30821357 -23.8359375 23.37695312 C-23.83461685 21.49479033 -23.8320564 19.6126279 -23.828125 17.73046875 C-23.83217346 16.86366989 -23.83622192 15.99687103 -23.84039307 15.10380554 C-23.75001855 3.32545022 -23.75001855 3.32545022 -19.75 -0.8125 C-13.8044105 -3.87023174 -5.44143383 -4.11425485 0 0 Z " fill="#80A7D8" transform="translate(369.5625,20.9375)"/>
<path d="M0 0 C2.18283158 3.13188878 2.56606103 4.88199415 2.59521484 8.66064453 C2.60547699 9.61568878 2.61573914 10.57073303 2.62631226 11.55471802 C2.63361359 12.5911142 2.64091492 13.62751038 2.6484375 14.6953125 C2.67651983 16.88542396 2.70518438 19.07552803 2.734375 21.265625 C2.77554181 24.72167649 2.81242419 28.17759184 2.83886719 31.63378906 C2.86658892 34.96708889 2.9124771 38.29975807 2.9609375 41.6328125 C2.96419037 42.65706329 2.96744324 43.68131409 2.97079468 44.73660278 C3.11306142 53.10059017 4.50455954 59.74678919 10.4375 66.0625 C14.62383435 68.15566718 19.87859613 67.48561395 24.4375 67.0625 C29.48300388 64.76104209 31.41661322 62.16789819 33.4375 57.0625 C34.3412545 54.04719124 34.57109321 51.33323253 34.59521484 48.18969727 C34.61060806 46.74283287 34.61060806 46.74283287 34.62631226 45.26673889 C34.63361359 44.23125412 34.64091492 43.19576935 34.6484375 42.12890625 C34.67649884 39.93163308 34.70516325 37.73436755 34.734375 35.53710938 C34.77567615 32.0764176 34.81256938 28.61586951 34.83886719 25.1550293 C34.86646034 21.81269018 34.9123231 18.47099685 34.9609375 15.12890625 C34.96419037 14.09544571 34.96744324 13.06198517 34.97079468 11.99720764 C35.128992 2.75612785 35.128992 2.75612785 38.4375 -0.9375 C44.10046555 -3.08552142 49.55500932 -3.6630306 55.4375 -1.9375 C58.62497102 0.38669762 60.14104656 1.8057824 61.05200195 5.66748047 C61.52796852 9.85924179 61.59980474 13.97990791 61.60546875 18.1953125 C61.61046135 19.50494461 61.61046135 19.50494461 61.61555481 20.84103394 C61.62060227 22.68503292 61.62296381 24.52904099 61.62280273 26.37304688 C61.62497674 29.15771051 61.64312127 31.94196947 61.66210938 34.7265625 C61.72015845 52.55822066 60.44132395 69.51251544 47.4375 83.0625 C36.87983046 92.66548666 26.39900949 94.89213204 12.41308594 94.24169922 C2.33452665 93.32750464 -5.54391328 87.46565917 -12.25 80.3125 C-23.85463184 66.30235222 -24.04296696 49.43250682 -23.89868164 32.10986328 C-23.87482847 29.04042789 -23.87817451 25.97185001 -23.88476562 22.90234375 C-23.87919536 20.93489068 -23.87208961 18.96744123 -23.86328125 17 C-23.86419266 16.09056641 -23.86510406 15.18113281 -23.86604309 14.24414062 C-23.74344324 3.24344324 -23.74344324 3.24344324 -19.75 -0.75 C-13.87652944 -3.93845545 -5.41427845 -4.09372273 0 0 Z " fill="#80A7D8" transform="translate(106.5625,20.9375)"/>
<path d="M0 0 C1.12148437 -0.05607422 1.12148437 -0.05607422 2.265625 -0.11328125 C5.89706445 0.50908809 7.91130395 1.98476924 10.75 4.3125 C12.18290371 6.59344876 13.28747264 8.6314661 14.375 11.0625 C15.05741422 12.50446505 15.74108974 13.94583363 16.42578125 15.38671875 C16.79396973 16.17353027 17.1621582 16.9603418 17.54150391 17.77099609 C19.31176824 21.49391564 21.17596569 25.1677955 23.03417969 28.84741211 C29.05337586 40.77138204 34.87577552 52.78370651 40.57958984 64.86132812 C41.61984758 67.03992379 42.68594865 69.20210554 43.76953125 71.359375 C49.13088279 82.25786009 49.13088279 82.25786009 47.75 88.3125 C43.82308009 93.18842556 38.95532381 95.83511135 32.8125 96.75 C28.75776479 96.17075211 26.46307797 94.23776899 23.75 91.3125 C22.18178239 88.81148358 21.01969014 86.21633962 19.875 83.5 C18.84375 81.128125 17.8125 78.75625 16.75 76.3125 C5.86 75.9825 -5.03 75.6525 -16.25 75.3125 C-17.24 78.2825 -18.23 81.2525 -19.25 84.3125 C-20.71484375 87.30859375 -20.71484375 87.30859375 -22.1875 89.75 C-22.67089844 90.57371094 -23.15429688 91.39742188 -23.65234375 92.24609375 C-25.40334439 94.5108354 -26.56616409 95.371615 -29.25 96.3125 C-36.27818003 96.3125 -40.86746662 93.75279559 -46.25 89.3125 C-47.64672407 86.51905187 -47.44041849 84.414517 -47.25 81.3125 C-46.37060547 78.79663086 -46.37060547 78.79663086 -45.1171875 76.27734375 C-44.64780762 75.31795898 -44.17842773 74.35857422 -43.69482422 73.37011719 C-43.17678223 72.34047852 -42.65874023 71.31083984 -42.125 70.25 C-41.02063527 68.00400363 -39.916477 65.75790573 -38.8125 63.51171875 C-38.22984375 62.33657715 -37.6471875 61.16143555 -37.046875 59.95068359 C-34.32679668 54.45706513 -31.67378475 48.93105071 -29.01467896 43.40774536 C-28.12674603 41.56612137 -27.23561288 39.72607981 -26.34350586 37.88647461 C-23.62325754 32.27254549 -20.92913689 26.64932753 -18.31640625 20.984375 C-17.86861816 20.01983398 -17.42083008 19.05529297 -16.95947266 18.06152344 C-16.14119446 16.29303736 -15.33154524 14.52051946 -14.53271484 12.74316406 C-11.42638808 6.05027878 -8.02837315 0.25942022 0 0 Z M-0.25 42.3125 C-1.9 45.9425 -3.55 49.5725 -5.25 53.3125 C-1.62 53.3125 2.01 53.3125 5.75 53.3125 C4.1 49.6825 2.45 46.0525 0.75 42.3125 C0.42 42.3125 0.09 42.3125 -0.25 42.3125 Z " fill="#7FA6D7" transform="translate(116.25,142.6875)"/>
<path d="M0 0 C0.75925781 -0.02578125 1.51851563 -0.0515625 2.30078125 -0.078125 C5.4703859 0.3576308 7.14895683 1.2941401 9.6875 3.25 C11.5390625 6.015625 11.5390625 6.015625 13.3125 9.5 C13.64967041 10.15709961 13.98684082 10.81419922 14.33422852 11.49121094 C18.16764924 19.03887868 21.77400351 26.70210895 25.3984375 34.3515625 C27.93580286 39.69465294 30.51133666 45.0182874 33.1015625 50.3359375 C33.67587761 51.51530884 33.67587761 51.51530884 34.26179504 52.71850586 C35.80625099 55.88891265 37.35134682 59.05900098 38.89938354 62.22766113 C39.98778546 64.45574427 41.07410371 66.68483348 42.16015625 68.9140625 C42.48678253 69.58086029 42.81340881 70.24765808 43.14993286 70.93466187 C48.38279535 81.68763722 48.38279535 81.68763722 47.6875 87.25 C44.80646297 92.51102414 40.17499568 94.45270176 34.6875 96.25 C31.4375 96.8125 31.4375 96.8125 28.6875 96.25 C24.49664518 92.65783872 22.18936151 88.95178027 19.875 84.0625 C19.40803711 83.11987305 19.40803711 83.11987305 18.93164062 82.15820312 C16.6875 77.54661745 16.6875 77.54661745 16.6875 75.25 C0.3525 75.745 0.3525 75.745 -16.3125 76.25 C-18.73397371 81.32891408 -18.73397371 81.32891408 -21.12768555 86.42089844 C-23.22052149 90.70697462 -25.1042761 93.71308021 -29.3125 96.25 C-35.85830083 96.35730821 -40.14580565 94.14321335 -45.3125 90.25 C-47.3125 88.25 -47.3125 88.25 -47.8203125 84.94921875 C-47.63480975 78.39331607 -44.10162646 72.77893992 -41.1875 67.0625 C-40.55219735 65.78696637 -39.91860067 64.51058179 -39.28662109 63.23339844 C-37.96916092 60.57428515 -36.6444122 57.91899589 -35.31445312 55.26611328 C-32.42568541 49.48945281 -29.62745524 43.66932451 -26.82815552 37.84893799 C-25.94307673 36.0115769 -25.05403644 34.17618444 -24.16381836 32.34130859 C-21.66525148 27.18194409 -19.18653808 22.01987601 -16.83203125 16.79296875 C-16.47222168 15.99987305 -16.11241211 15.20677734 -15.74169922 14.38964844 C-15.11048229 12.98798013 -14.48979789 11.58148562 -13.88330078 10.16894531 C-11.06456819 3.91733354 -6.91034435 0.13936829 0 0 Z M-0.3125 42.25 C-1.14823823 43.89461345 -1.98102882 45.54072513 -2.8125 47.1875 C-3.2765625 48.10402344 -3.740625 49.02054688 -4.21875 49.96484375 C-5.38445471 51.97809692 -5.38445471 51.97809692 -5.3125 53.25 C-2.0125 53.25 1.2875 53.25 4.6875 53.25 C3.4749262 49.52566618 2.17890021 45.87197194 0.6875 42.25 C0.3575 42.25 0.0275 42.25 -0.3125 42.25 Z " fill="#7FA6D7" transform="translate(295.3125,18.75)"/>
<path d="M0 0 C1.2065625 -0.01933594 1.2065625 -0.01933594 2.4375 -0.0390625 C6.98213153 1.13866213 9.92623023 3.92511144 12.38241577 7.81350708 C13.81207437 10.5194153 15.14330111 13.25567004 16.44921875 16.0234375 C17.19640923 17.56241196 17.19640923 17.56241196 17.95869446 19.13247681 C19.54856294 22.41528767 21.11824435 25.70729416 22.6875 29 C23.72199359 31.14386357 24.75779004 33.28709898 25.79492188 35.4296875 C28.88232326 41.81907139 31.94280366 48.22112263 35 54.625 C36.57478497 57.91820874 38.1501559 61.21113675 39.72554016 64.50405884 C40.69328227 66.5274154 41.66057694 68.55098604 42.62736511 70.57479858 C43.0568898 71.47388947 43.48641449 72.37298035 43.92895508 73.29931641 C44.30619217 74.08932037 44.68342926 74.87932434 45.07209778 75.69326782 C45.70410699 77.00900184 46.3472226 78.3194452 47 79.625 C47.64533939 84.31753931 47.75161794 87.57729015 44.9375 91.5 C39.98320802 95.0839559 35.21513438 97.57078132 29 96.625 C24.00702005 93.49326055 22.09019419 89.53306788 19.6875 84.375 C18.470625 81.8175 17.25375 79.26 16 76.625 C5.44 76.625 -5.12 76.625 -16 76.625 C-18.79244225 82.07916164 -18.79244225 82.07916164 -21.56347656 87.54418945 C-25.35820346 94.83347106 -25.35820346 94.83347106 -29 96.625 C-35.95436467 96.50909392 -41.73649269 94.3940365 -47.0625 89.875 C-48.69059955 85.96756107 -47.71312291 81.63844523 -46.32943726 77.73171997 C-45.47651591 75.81091024 -44.55956902 73.93899305 -43.60546875 72.06640625 C-43.26190842 71.36826813 -42.91834808 70.67013 -42.56437683 69.95083618 C-41.4494509 67.69090821 -40.31858604 65.43937647 -39.1875 63.1875 C-38.4103661 61.61886657 -37.63449768 60.04960559 -36.85986328 58.47973633 C-35.30759244 55.33553765 -33.75044831 52.1938292 -32.18994141 49.05371094 C-29.18959229 43.00283038 -26.2814542 36.90897649 -23.375 30.8125 C-22.42248709 28.83173679 -21.46939349 26.85125269 -20.515625 24.87109375 C-18.96260686 21.64376419 -17.43016178 18.40860298 -15.921875 15.16015625 C-15.32323733 13.89828533 -14.72430964 12.63655192 -14.125 11.375 C-13.65320313 10.35921875 -13.18140625 9.3434375 -12.6953125 8.296875 C-9.66804509 3.52578996 -5.97044613 -0.09568023 0 0 Z M-1 42.625 C-1.67119549 44.0812545 -2.33681807 45.54007867 -3 47 C-3.37125 47.81210938 -3.7425 48.62421875 -4.125 49.4609375 C-5.12495013 51.54498433 -5.12495013 51.54498433 -5 53.625 C-1.7 53.625 1.6 53.625 5 53.625 C3.77782954 49.58243617 2.37245704 46.13211041 0 42.625 C-0.33 42.625 -0.66 42.625 -1 42.625 Z " fill="#7FA6D7" transform="translate(300,142.375)"/>
<path d="M0 0 C0.79277344 -0.02449219 1.58554687 -0.04898438 2.40234375 -0.07421875 C7.40931338 1.35949502 10.74973494 4.57037915 13.47143555 8.9597168 C14.88477184 11.72994073 16.1734387 14.53353583 17.4375 17.375 C18.46821241 19.60762106 19.50088306 21.83933876 20.53515625 24.0703125 C20.80879501 24.66628738 21.08243378 25.26226227 21.36436462 25.876297 C23.6308992 30.80342526 25.98642484 35.68376983 28.37109375 40.5546875 C28.74308899 41.31507828 29.11508423 42.07546906 29.49835205 42.85890198 C30.98186402 45.8891499 32.46674421 48.91872064 33.95404053 51.94711304 C36.0155288 56.14965224 38.0570538 60.36076542 40.06500244 64.58917236 C40.74396659 66.01743574 41.42737175 67.44359452 42.11468506 68.86785889 C43.14077772 71.0065204 44.14162859 73.15536201 45.13671875 75.30859375 C45.44744827 75.94773209 45.7581778 76.58687042 46.07832336 77.24537659 C48.12324828 81.76727064 48.26385996 84.89353695 47.0625 89.6875 C42.92437302 94.32441907 37.22218256 96.33198853 31.203125 97.16796875 C27.72757008 96.38787157 26.32337452 94.37515427 24.0625 91.6875 C22.46723931 89.15662946 21.0969227 86.54464219 19.75 83.875 C18.533125 81.503125 17.31625 79.13125 16.0625 76.6875 C5.5025 76.6875 -5.0575 76.6875 -15.9375 76.6875 C-18.35897371 81.76641408 -18.35897371 81.76641408 -20.75268555 86.85839844 C-22.84578374 91.14501171 -24.73073915 94.14744313 -28.9375 96.6875 C-35.46121757 96.79622863 -40.75755378 94.65626881 -45.9375 90.6875 C-47.75 88.0625 -47.75 88.0625 -47.9375 84.6875 C-45.81235527 77.32782946 -42.52671892 70.415398 -39.12109375 63.578125 C-38.6677919 62.65594177 -38.21449005 61.73375854 -37.74745178 60.78363037 C-36.29541201 57.8321995 -34.83562979 54.88468793 -33.375 51.9375 C-31.38194951 47.90210783 -29.39177574 43.86530211 -27.40234375 39.828125 C-26.92006317 38.85073364 -26.43778259 37.87334229 -25.94088745 36.86633301 C-23.31693218 31.53653536 -20.74400519 26.1905178 -18.25390625 20.796875 C-17.51346069 19.19730957 -17.51346069 19.19730957 -16.75805664 17.56542969 C-15.91258372 15.72286456 -15.07860787 13.87495334 -14.25952148 12.02050781 C-11.36397068 5.73346544 -7.70716964 -0.03747408 0 0 Z M-0.9375 43.6875 C-1.60904933 44.97663487 -2.27458859 46.26890204 -2.9375 47.5625 C-3.30875 48.28179687 -3.68 49.00109375 -4.0625 49.7421875 C-5.07423746 51.63598977 -5.07423746 51.63598977 -4.9375 53.6875 C-1.6375 53.6875 1.6625 53.6875 5.0625 53.6875 C3.9530928 50.20079166 2.79912334 46.91265763 1.0625 43.6875 C0.4025 43.6875 -0.2575 43.6875 -0.9375 43.6875 Z " fill="#7FA6D7" transform="translate(501.9375,142.3125)"/>
<path d="M0 0 C0.87591797 -0.00761353 1.75183594 -0.01522705 2.65429688 -0.02307129 C4.51022499 -0.03387116 6.36621388 -0.03672585 8.22216797 -0.03222656 C11.02548695 -0.03126273 13.82598841 -0.07270459 16.62890625 -0.1171875 C30.90785623 -0.214405 41.39921933 1.86653076 52 12.14453125 C54.86467233 15.37271314 56.69143271 18.3872491 58.0625 22.46875 C58.41248047 23.48001953 58.41248047 23.48001953 58.76953125 24.51171875 C61.24474334 33.27876028 60.51060439 43.28869644 56.34375 51.4140625 C50.71473683 60.44107752 42.47582805 66.86240138 32.0625 69.46875 C28.43274082 69.69857796 24.82256676 69.65778234 21.1875 69.59375 C19.72570313 69.58021484 19.72570313 69.58021484 18.234375 69.56640625 C15.84349272 69.54296623 13.45312739 69.51015442 11.0625 69.46875 C11.08570312 70.63792969 11.10890625 71.80710937 11.1328125 73.01171875 C11.15157821 74.55988942 11.16977755 76.10806703 11.1875 77.65625 C11.21263672 78.80963867 11.21263672 78.80963867 11.23828125 79.98632812 C11.28249953 85.13775826 10.95904656 89.0179119 7.69921875 93.23046875 C4.10105072 95.95271043 -0.87720712 95.72851059 -5.19921875 95.18359375 C-8.8271463 94.38558381 -11.84531464 93.66856291 -13.9375 90.46875 C-15.22566269 86.69983815 -15.08528536 82.86850953 -15.08276367 78.93383789 C-15.08612228 78.18050674 -15.0894809 77.4271756 -15.09294128 76.65101624 C-15.10242857 74.16446273 -15.10439319 71.67797672 -15.10546875 69.19140625 C-15.10868257 67.46032178 -15.11204674 65.72923758 -15.11555481 63.99815369 C-15.1215403 60.37091441 -15.12339527 56.74369894 -15.12280273 53.11645508 C-15.12270108 48.47156362 -15.13635972 43.82682489 -15.15357494 39.18196964 C-15.16469937 35.60716553 -15.16672182 32.03239831 -15.16619301 28.45757866 C-15.16737221 26.74518748 -15.17179062 25.03279533 -15.17952538 23.32042122 C-15.1893354 20.92452443 -15.18644343 18.5289589 -15.18041992 16.13305664 C-15.18884918 15.07541107 -15.18884918 15.07541107 -15.19744873 13.99639893 C-15.16658947 9.15986675 -14.61961294 5.38367408 -11.37109375 1.68554688 C-7.65119601 -0.17440199 -4.10645046 0.00098637 0 0 Z M11.0625 25.46875 C11.0625 31.73875 11.0625 38.00875 11.0625 44.46875 C13.599375 44.530625 16.13625 44.5925 18.75 44.65625 C19.93468872 44.69721802 19.93468872 44.69721802 21.14331055 44.73901367 C25.69178046 44.79249802 28.44858784 44.23785152 32.0625 41.46875 C34.46783071 39.48641487 34.46783071 39.48641487 34.4375 35.65625 C34.36057471 32.40171846 34.04186065 31.43530001 32.25 28.53125 C28.26691388 24.7757688 24.02561478 25.34821635 18.875 25.40625 C16.296875 25.426875 13.71875 25.4475 11.0625 25.46875 Z " fill="#7FA6D7" transform="translate(18.9375,142.53125)"/>
<path d="M0 0 C0.87591797 -0.00761353 1.75183594 -0.01522705 2.65429688 -0.02307129 C4.51022499 -0.03387116 6.36621388 -0.03672585 8.22216797 -0.03222656 C11.02548695 -0.03126273 13.82598841 -0.07270459 16.62890625 -0.1171875 C30.90785623 -0.214405 41.39921933 1.86653076 52 12.14453125 C54.86467233 15.37271314 56.69143271 18.3872491 58.0625 22.46875 C58.41248047 23.48001953 58.41248047 23.48001953 58.76953125 24.51171875 C61.24474334 33.27876028 60.51060439 43.28869644 56.34375 51.4140625 C50.71473683 60.44107752 42.47582805 66.86240138 32.0625 69.46875 C28.43274082 69.69857796 24.82256676 69.65778234 21.1875 69.59375 C19.72570313 69.58021484 19.72570313 69.58021484 18.234375 69.56640625 C15.84349272 69.54296623 13.45312739 69.51015442 11.0625 69.46875 C11.08570312 70.63792969 11.10890625 71.80710937 11.1328125 73.01171875 C11.15157821 74.55988942 11.16977755 76.10806703 11.1875 77.65625 C11.21263672 78.80963867 11.21263672 78.80963867 11.23828125 79.98632812 C11.28249953 85.13775826 10.95904656 89.0179119 7.69921875 93.23046875 C4.10105072 95.95271043 -0.87720712 95.72851059 -5.19921875 95.18359375 C-8.8271463 94.38558381 -11.84531464 93.66856291 -13.9375 90.46875 C-15.22566269 86.69983815 -15.08528536 82.86850953 -15.08276367 78.93383789 C-15.08612228 78.18050674 -15.0894809 77.4271756 -15.09294128 76.65101624 C-15.10242857 74.16446273 -15.10439319 71.67797672 -15.10546875 69.19140625 C-15.10868257 67.46032178 -15.11204674 65.72923758 -15.11555481 63.99815369 C-15.1215403 60.37091441 -15.12339527 56.74369894 -15.12280273 53.11645508 C-15.12270108 48.47156362 -15.13635972 43.82682489 -15.15357494 39.18196964 C-15.16469937 35.60716553 -15.16672182 32.03239831 -15.16619301 28.45757866 C-15.16737221 26.74518748 -15.17179062 25.03279533 -15.17952538 23.32042122 C-15.1893354 20.92452443 -15.18644343 18.5289589 -15.18041992 16.13305664 C-15.18884918 15.07541107 -15.18884918 15.07541107 -15.19744873 13.99639893 C-15.16658947 9.15986675 -14.61961294 5.38367408 -11.37109375 1.68554688 C-7.65119601 -0.17440199 -4.10645046 0.00098637 0 0 Z M11.0625 25.46875 C11.0625 31.73875 11.0625 38.00875 11.0625 44.46875 C13.599375 44.530625 16.13625 44.5925 18.75 44.65625 C19.93468872 44.69721802 19.93468872 44.69721802 21.14331055 44.73901367 C25.69178046 44.79249802 28.44858784 44.23785152 32.0625 41.46875 C34.46783071 39.48641487 34.46783071 39.48641487 34.4375 35.65625 C34.36057471 32.40171846 34.04186065 31.43530001 32.25 28.53125 C28.26691388 24.7757688 24.02561478 25.34821635 18.875 25.40625 C16.296875 25.426875 13.71875 25.4475 11.0625 25.46875 Z " fill="#7FA6D7" transform="translate(18.9375,18.53125)"/>
<path d="M0 0 C1.21429688 -0.02835938 2.42859375 -0.05671875 3.6796875 -0.0859375 C7.74966483 0.45857194 9.35205179 1.3769416 12.125 4.375 C13.19219315 8.19910662 13.24632418 11.86364065 13.23852539 15.81762695 C13.23844986 17.09857742 13.23837433 18.37952789 13.23829651 19.69929504 C13.23319065 21.08729085 13.22797467 22.47528625 13.22265625 23.86328125 C13.22078975 25.29103038 13.21936694 26.71878015 13.21836853 28.14653015 C13.21456165 31.89313545 13.20474707 35.6397016 13.19366455 39.3862915 C13.18341102 43.21390249 13.17886248 47.04151984 13.17382812 50.86914062 C13.16312307 58.37111154 13.14606873 65.87305027 13.125 73.375 C14.25518555 73.35928955 15.38537109 73.3435791 16.54980469 73.32739258 C20.74667217 73.27305405 24.94350861 73.23863569 29.140625 73.21020508 C30.95643342 73.19512738 32.77220547 73.17466202 34.58789062 73.14868164 C37.19931008 73.1122532 39.81024765 73.09526362 42.421875 73.08203125 C43.63771271 73.05880547 43.63771271 73.05880547 44.87811279 73.03511047 C48.19378089 73.03412254 50.65327314 73.12201071 53.60644531 74.70581055 C56.64865093 78.04979122 56.40238561 81.87864975 56.33984375 86.15234375 C56.03880347 89.26674226 55.1852292 91.03060125 53.125 93.375 C49.61461771 95.08188421 46.77856385 95.62958883 42.89501953 95.6496582 C41.36785812 95.66395622 41.36785812 95.66395622 39.80984497 95.67854309 C38.72017426 95.67763168 37.63050354 95.67672028 36.5078125 95.67578125 C35.37729462 95.68006638 34.24677673 95.6843515 33.08200073 95.68876648 C30.69318307 95.69450333 28.30434795 95.6950148 25.91552734 95.69067383 C22.2702028 95.68751749 18.62569281 95.71096962 14.98046875 95.73632812 C12.65625102 95.73860161 10.33203112 95.73930439 8.0078125 95.73828125 C6.92219025 95.747491 5.83656799 95.75670074 4.7180481 95.76618958 C-1.19104606 95.73026017 -5.7858762 95.53511914 -10.875 92.375 C-13.14813714 88.22667459 -13.16549712 84.16039838 -13.1496582 79.54296875 C-13.15476913 78.76998444 -13.15988007 77.99700012 -13.16514587 77.20059204 C-13.17900591 74.65448184 -13.17808808 72.10864336 -13.17578125 69.5625 C-13.17966966 67.78800354 -13.18400463 66.013508 -13.18876648 64.23901367 C-13.19622059 60.52356953 -13.19594291 56.80822044 -13.19067383 53.09277344 C-13.1848749 48.3346014 -13.20182424 43.57681808 -13.2250185 38.81871033 C-13.23975726 35.15553518 -13.24062744 31.49245369 -13.23750877 27.82925415 C-13.23802174 26.07499419 -13.24325483 24.32072896 -13.25332069 22.5664978 C-13.26567307 20.11308573 -13.25890142 17.66043141 -13.24731445 15.20703125 C-13.25495819 14.48480377 -13.26260193 13.76257629 -13.27047729 13.01846313 C-13.22472054 8.62969067 -12.58598483 5.85366677 -9.875 2.375 C-6.24295662 -0.04636226 -4.32356165 0.04570361 0 0 Z " fill="#80A7D8" transform="translate(189.875,18.625)"/>
</svg>
